<svg id="Capa_1" enable-background="new 0 0 512 512" height="512" viewBox="0 0 512 512" width="512" xmlns="http://www.w3.org/2000/svg"><g><path d="m497 58.11h-70.816l-15 30v278.459l15 30h70.816l15-30v-278.459z" fill="#efd838"/><path d="m461.592 58.11v338.459h35.408l15-30v-278.459l-15-30z" fill="#fcc216"/><path d="m360.508 0h-345.508c-8.284 0-15 6.716-15 15v480.981c0 8.284 6.716 15 15 15h345.508c8.284 0 15-6.716 15-15v-480.981c0-8.284-6.716-15-15-15z" fill="#f5fafc"/><path d="m360.508 0h-172.754v510.981h172.754c8.284 0 15-6.716 15-15v-480.981c0-8.284-6.716-15-15-15z" fill="#dbeeff"/><path d="m145.251 81.928h-66.069c-8.284 0-15 6.716-15 15v65.902c0 8.284 6.716 15 15 15h66.069c8.284 0 15-6.716 15-15v-65.902c0-8.284-6.716-15-15-15z" fill="#ff4a4a"/><path d="m145.251 207.54h-66.069c-8.284 0-15 6.716-15 15v65.901c0 8.284 6.716 15 15 15h66.069c8.284 0 15-6.716 15-15v-65.901c0-8.284-6.716-15-15-15z" fill="#ff4a4a"/><path d="m145.251 333.152h-66.069c-8.284 0-15 6.716-15 15v65.901c0 8.284 6.716 15 15 15h66.069c8.284 0 15-6.716 15-15v-65.901c0-8.284-6.716-15-15-15z" fill="#ff4a4a"/><g fill="#2d2755"><path d="m205.276 111.928h91.05c8.284 0 15-6.716 15-15s-6.716-15-15-15h-91.05c-8.284 0-15 6.716-15 15s6.716 15 15 15z"/><path d="m296.327 147.83h-91.05c-8.284 0-15 6.716-15 15s6.716 15 15 15h91.05c8.284 0 15-6.716 15-15s-6.716-15-15-15z"/><path d="m296.327 207.54h-91.05c-8.284 0-15 6.716-15 15s6.716 15 15 15h91.05c8.284 0 15-6.716 15-15s-6.716-15-15-15z"/><path d="m296.327 273.441h-91.05c-8.284 0-15 6.716-15 15s6.716 15 15 15h91.05c8.284 0 15-6.716 15-15s-6.716-15-15-15z"/><path d="m296.327 333.152h-91.05c-8.284 0-15 6.716-15 15s6.716 15 15 15h91.05c8.284 0 15-6.716 15-15s-6.716-15-15-15z"/><path d="m296.327 399.054h-91.05c-8.284 0-15 6.716-15 15s6.716 15 15 15h91.05c8.284 0 15-6.716 15-15s-6.716-15-15-15z"/></g><path d="m512 366.569h-100.816v57.973c0 2.282.521 4.535 1.523 6.586l35.251 72.139c2.106 4.31 6.038 7.552 10.748 8.458 6.805 1.308 13.428-2.134 16.362-8.138l35.408-72.458c1.002-2.051 1.523-4.303 1.523-6.586v-57.974z" fill="#ff9e28"/><path d="m461.637 1.019h-.09c-27.815 0-50.363 22.548-50.363 50.363v36.728h100.816v-36.729c0-27.814-22.548-50.362-50.363-50.362z" fill="#ff9e28"/><path d="m461.592 511.99c5.73-.001 10.961-3.255 13.477-8.404l35.408-72.458c1.002-2.051 1.523-4.303 1.523-6.586v-57.973h-50.408z" fill="#f37e15"/><path d="m461.637 1.019h-.045v87.091h50.408v-36.729c0-27.814-22.548-50.362-50.363-50.362z" fill="#f37e15"/></g></svg>