<svg id="Capa_1" enable-background="new 0 0 496.831 496.831" height="512" viewBox="0 0 496.831 496.831" width="512" xmlns="http://www.w3.org/2000/svg"><g><path d="m128.617 10.158c-16.425-5.828-33.943-9.348-52.167-10.151-4.43-.195-8.052 3.45-7.857 7.879 4.213 95.662 83.093 171.926 179.79 171.944z" fill="#bee070"/><path d="m248.415 179.831c-.002-78.298-49.997-144.904-119.799-169.672 3.568 94.588 55.819 169.645 119.799 169.672z" fill="#7ed65f"/><path d="m398.389 2.338-149.935 177.492c96.693-.021 175.57-76.282 179.784-171.942.195-4.426-3.422-8.076-7.848-7.88-7.461.331-14.803 1.119-22.001 2.33z" fill="#348863"/><path d="m398.389 2.338c-10.386 1.748-20.472 4.378-30.175 7.82l-119.782 169.673c82.149-.026 148.838-79.255 149.957-177.493z" fill="#39aa59"/><path d="m368.214 10.158c-69.802 24.768-119.797 91.374-119.799 169.668 63.972-.008 116.231-75.071 119.799-169.668z" fill="#3dcc4e"/><path d="m184.402 209.831h-170.473c-5.99 0-9.563 6.676-6.24 11.66l82.227 123.34h188.5l-87.774-131.66c-1.391-2.087-3.733-3.34-6.24-3.34z" fill="#ffb13f"/><path d="m466.915 209.831-248.5 135h188.5l82.227-123.34c3.323-4.984-.25-11.66-6.24-11.66z" fill="#ff6237"/><path d="m306.189 213.171-87.773 131.66h158.5l90-135h-154.487c-2.507 0-4.849 1.253-6.24 3.34z" fill="#ff893b"/><path d="m406.915 299.831-100 109.25 100 87.75h22.5c4.142 0 7.5-3.358 7.5-7.5v-189.5z" fill="#ff893b"/><path d="m248.415 299.831-110 109.25 110 87.75h158.5v-197z" fill="#ffb13f"/><path d="m59.915 299.831v189.5c0 4.142 3.358 7.5 7.5 7.5h181v-197z" fill="#ffcf70"/></g></svg>